<?xml version="1.0" encoding="UTF-8" standalone="no"?>
<!-- Created with Inkscape (http://www.inkscape.org/) -->

<svg
   width="800mm"
   height="200mm"
   viewBox="0 0 800 200"
   version="1.1"
   id="svg1"
   xml:space="preserve"
   inkscape:version="1.3 (0e150ed, 2023-07-21)"
   sodipodi:docname="bbccv0.4.svg"
   xmlns:inkscape="http://www.inkscape.org/namespaces/inkscape"
   xmlns:sodipodi="http://sodipodi.sourceforge.net/DTD/sodipodi-0.dtd"
   xmlns="http://www.w3.org/2000/svg"
   xmlns:svg="http://www.w3.org/2000/svg"><sodipodi:namedview
     id="namedview1"
     pagecolor="#ffffff"
     bordercolor="#000000"
     borderopacity="0.25"
     inkscape:showpageshadow="2"
     inkscape:pageopacity="0.0"
     inkscape:pagecheckerboard="0"
     inkscape:deskcolor="#d1d1d1"
     inkscape:document-units="mm"
     inkscape:zoom="0.2102413"
     inkscape:cx="839.51154"
     inkscape:cy="542.23409"
     inkscape:window-width="1472"
     inkscape:window-height="671"
     inkscape:window-x="12"
     inkscape:window-y="141"
     inkscape:window-maximized="0"
     inkscape:current-layer="layer1" /><defs
     id="defs1"><rect
       x="922.74921"
       y="52.320831"
       width="1997.7045"
       height="570.77271"
       id="rect1" /><rect
       x="922.74921"
       y="52.320831"
       width="1997.7045"
       height="570.77271"
       id="rect1-5" /></defs><g
     inkscape:label="Calque 1"
     inkscape:groupmode="layer"
     id="layer1"><path
       d="m 20.76043,52.076861 c -0.37568,0.645222 -0.786736,1.845813 -0.885351,2.585898 -0.21179,1.37199 -0.10551,1.588933 3.857368,9.678177 3.962879,8.089228 4.069161,8.306188 5.28306,8.979749 1.551689,0.892391 3.740936,1.203412 4.856694,0.656822 l 0.898801,-0.440329 1.290591,2.634431 1.275409,2.603439 -13.777435,6.864788 -13.7774349,6.864787 -0.318701,1.232217 -0.318703,1.232201 22.4562969,45.838999 22.456295,45.839 1.168973,0.50342 1.168975,0.50341 29.675095,-14.42236 29.659847,-14.45349 1.27541,2.60344 1.26022,2.57243 -0.99369,0.71735 c -1.42821,1.0071 -2.26048,2.75995 -2.21352,4.58165 0.0507,1.35871 0.45878,2.42704 3.70803,9.05956 4.23618,8.64713 4.78592,9.37705 7.63744,9.86324 1.68005,0.29145 1.71104,0.27626 6.08109,-1.86462 4.06012,-1.98902 4.46365,-2.26358 5.0746,-3.36994 0.37568,-0.64521 0.80128,-1.73765 0.91446,-2.36958 0.20992,-1.14045 0.0435,-1.55857 -4.01046,-9.83377 l -4.221,-8.6161 -1.55293,-0.73805 c -1.04563,-0.48698 -2.07859,-0.63428 -3.31455,-0.48995 l -1.76161,0.24805 -1.32284,-2.4649 -1.32283,-2.4649 13.35811,-6.54407 13.35806,-6.54404 1.15205,2.58699 1.15206,2.58698 -0.9475,0.73321 c -1.81716,1.38981 -2.59436,3.96116 -1.96541,6.34326 0.24038,0.80458 1.75625,4.21257 3.38089,7.52884 4.05397,8.2752 4.87952,9.25432 8.17888,9.71326 1.24864,0.19536 1.71292,0.0447 5.52506,-1.8228 4.86595,-2.38379 5.73689,-3.19476 6.05103,-5.76989 l 0.2295,-1.64968 -3.56621,-7.51492 c -2.413,-5.08223 -3.8566,-7.8723 -4.51447,-8.58763 -1.54545,-1.66411 -4.59435,-2.55321 -6.23703,-1.74847 -0.58883,0.28846 -0.71094,0.11766 -1.91043,-2.33075 l -1.2906,-2.63443 13.17214,-6.45295 13.17212,-6.45298 1.27541,2.60342 1.26024,2.57245 -0.99368,0.71733 c -1.36625,0.97674 -2.19789,2.65241 -2.24328,4.44253 -0.0117,1.38905 0.29117,2.16325 3.81369,9.35369 3.70476,7.56233 3.88768,7.85706 5.1616,8.73178 0.70594,0.49966 1.9369,0.97272 2.67699,1.0713 1.27963,0.18019 1.74392,0.0295 5.71104,-1.91389 4.86595,-2.38377 5.44151,-2.93474 5.95621,-5.4928 l 0.32118,-1.5409 -3.71804,-7.82485 c -2.0334,-4.30738 -4.03878,-8.24421 -4.40508,-8.75653 -1.00773,-1.35101 -3.9637,-2.28568 -5.66581,-1.75928 l -1.34601,0.39036 -1.26024,-2.57245 -1.26022,-2.57243 13.77744,-6.8648 13.77742,-6.86481 0.31872,-1.2322 0.31868,-1.2322 -22.45627,-45.838932 -22.45628,-45.839003 -1.16896,-0.503415 -1.16898,-0.503396 -29.67509,14.422379 -29.65991,14.453373 -1.29058,-2.634414 c -1.1995,-2.448469 -1.25951,-2.64966 -0.67073,-2.9381 1.64264,-0.804726 2.80878,-3.758772 2.44113,-5.999846 -0.16204,-0.958276 -1.4817,-3.809038 -4.01861,-8.83056 l -3.752193,-7.423816 -1.44415,-0.829777 c -2.22731,-1.330042 -3.4019,-1.138928 -8.267834,1.244872 -3.812166,1.867563 -4.21569,2.14211 -4.841825,3.21748 -0.939825,1.690227 -1.168052,3.185565 -0.703624,4.918054 0.524535,1.933636 6.051275,13.21518 7.257674,14.814775 1.496735,1.956961 4.004829,2.918845 6.216779,2.334838 l 1.16006,-0.299288 1.33804,2.495894 1.338013,2.495893 -13.358083,6.544054 -13.358086,6.54407 -1.136885,-2.556008 -1.136873,-2.555991 1.275736,-1.239895 C 74.07658,53.51267 74.593285,52.60621 74.849377,51.481522 L 75.218015,49.8021 70.997021,41.185993 c -4.053964,-8.275168 -4.282358,-8.662889 -5.312167,-9.196047 -0.568681,-0.297875 -1.692728,-0.631136 -2.447986,-0.760748 -1.233468,-0.164355 -1.697737,-0.01385 -5.757859,1.975253 -4.370042,2.14086 -4.401037,2.156045 -5.200446,3.662186 -1.363553,2.55114 -1.123752,3.432885 3.112426,12.080005 3.249255,6.63254 3.843285,7.609779 4.88578,8.482593 1.410657,1.153644 3.305781,1.570342 4.97691,1.059117 l 1.17586,-0.345468 1.260225,2.57243 1.275405,2.603439 -13.172112,6.452947 -13.172128,6.452964 -1.290594,-2.634431 c -1.214672,-2.479454 -1.259588,-2.649601 -0.639731,-2.953279 1.053769,-0.516231 2.274409,-2.574616 2.519071,-4.193306 l 0.213045,-1.526332 -4.038792,-8.244204 -4.038791,-8.244204 -1.459334,-0.860747 c -2.227215,-1.329966 -3.40183,-1.138841 -8.267768,1.244951 -3.812166,1.86756 -4.215705,2.142131 -4.857645,3.263665 z m 13.509718,7.101708 3.18852,6.508589 -2.634422,1.290579 -2.634428,1.290596 -3.188519,-6.508572 -3.188522,-6.508589 2.634426,-1.290596 2.634424,-1.290596 z m 31.613103,-15.487103 3.188529,6.508589 -2.634432,1.290579 -2.634426,1.290596 -3.188519,-6.508572 -3.188522,-6.508589 2.634424,-1.290588 2.634427,-1.290594 z m 31.923036,-15.63893 3.188533,6.508575 -2.634443,1.290601 -2.63443,1.290588 -3.188505,-6.508587 -3.188523,-6.508576 2.634409,-1.290586 2.634429,-1.290598 z m -5.837506,42.21365 4.615756,9.421931 -1.35037,0.930592 c -1.986714,1.35757 -5.132058,4.743184 -6.710683,7.169099 -1.735477,2.733348 -3.664266,8.366903 -3.968268,11.590348 -0.495432,5.892154 1.042783,12.248424 4.138164,16.919474 3.446486,5.15239 7.909957,8.61521 13.72824,10.60723 5.14077,1.78587 11.06641,1.95745 15.90965,0.46869 l 1.40803,-0.4207 4.60055,9.39092 4.61577,9.42196 -35.579638,17.35331 -35.625789,17.33761 -5.300904,-10.58515 -5.254726,-10.56932 12.3973,-6.07337 12.428284,-6.08857 0.364263,-1.13921 0.410425,-1.12343 -9.5807,-19.55665 -9.58075,-19.55674 -1.139232,-0.36426 -1.123423,-0.41042 -12.428289,6.08856 -12.397296,6.07338 -5.132,-10.47572 C 18.58903,100.91101 16.313388,96.03051 16.391816,95.876802 16.424056,95.707273 32.433012,87.74929 51.927759,78.198902 L 87.353022,60.844239 Z m 77.454129,-36.291847 5.2699,10.600322 -12.39732,6.073383 -12.42829,6.088554 -0.36425,1.139242 -0.41043,1.123403 9.58075,19.556759 9.58075,19.556742 1.13924,0.364259 1.1234,0.410406 12.4283,-6.088571 12.39729,-6.07335 5.13074,10.630065 5.11494,10.676227 -35.5037,17.50839 -35.54993,17.4925 -4.61576,-9.42195 -4.60056,-9.39094 1.19539,-0.8547 c 4.08284,-2.88407 7.64173,-7.77896 9.38082,-12.85838 1.99202,-5.81828 1.99159,-11.467469 0.0328,-17.348676 -1.79367,-5.308766 -5.87334,-10.419998 -10.83271,-13.639854 -2.73332,-1.735481 -8.36689,-3.664274 -11.59033,-3.968285 -2.88438,-0.239491 -7.48734,0.170764 -9.77772,0.908495 l -1.56293,0.496639 -4.615763,-9.421931 -4.615759,-9.421947 35.610562,-17.368633 35.59481,-17.322425 z m -61.2686,69.330651 8.95822,18.28598 -0.92792,0.22396 c -7.62448,1.85207 -15.35366,-0.51048 -20.739573,-6.32688 -2.341223,-2.50404 -4.372673,-7.04299 -4.852427,-10.68954 -0.681055,-5.469537 0.737289,-10.96831 3.951517,-15.233147 1.15426,-1.487846 3.48878,-3.861307 4.45021,-4.409165 0.10875,-0.09179 4.240543,8.106935 9.159963,18.148742 z M 107.8983,81.601288 c 6.3835,-1.090375 13.78571,1.624515 18.54409,6.787567 1.97373,2.14602 4.22083,6.733059 4.70687,9.607915 1.32578,7.80541 -1.54471,15.3607 -7.68123,20.2501 l -0.77667,0.61114 -8.95821,-18.28599 -8.95822,-18.286022 0.95891,-0.239174 c 0.51048,-0.134682 1.48454,-0.342947 2.16452,-0.445486 z m -49.953022,46.300842 7.743554,15.80655 -10.537702,5.16237 -10.537709,5.16235 -7.743548,-15.80655 -7.743551,-15.80655 10.537701,-5.16237 10.537704,-5.16235 z m 127.072282,-62.252073 7.74353,15.806569 -10.53769,5.162368 -10.53771,5.162351 -7.74354,-15.806552 -7.74356,-15.806552 10.53771,-5.162368 10.5377,-5.162367 z M 129.35,173.24321 l 3.18851,6.50857 -2.63443,1.2906 -2.63442,1.29061 -3.18852,-6.50859 -3.18853,-6.50859 2.63443,-1.2906 2.63442,-1.29061 z m 31.923,-15.63894 3.18855,6.50858 -2.63445,1.2906 -2.63441,1.29058 -3.18851,-6.50856 -3.18853,-6.5086 2.63441,-1.2906 2.63443,-1.29059 z m 31.61313,-15.48711 3.18853,6.50859 -2.63444,1.2906 -2.63441,1.29059 -3.18853,-6.50859 -3.18853,-6.50858 2.63441,-1.2906 2.63443,-1.2906 z"
       id="path1"
       style="fill:#000000;stroke:none;stroke-width:0.0341233;stroke-dasharray:none" /><path
       style="font-size:306.667px;font-family:'Sofia Pro';-inkscape-font-specification:'Sofia Pro';white-space:pre;stroke-width:0.0577337"
       d="m 303.14307,37.2365 q 0,5.219833 -3.07839,10.70735 -3.07833,5.487515 -9.90427,7.495145 8.6997,1.338418 13.25033,7.896668 4.55063,6.558251 4.55063,14.053397 0,11.376561 -7.36129,19.407073 -7.36132,7.896677 -23.0208,7.896677 H 237.15903 V 12.47575 h 37.74343 q 12.8488,0 20.47778,6.825938 7.76283,6.825937 7.76283,17.934812 z m -43.49861,10.84119 h 12.04575 q 3.47992,0 5.6214,-2.007627 2.14145,-2.141469 2.14145,-5.621361 0,-8.432039 -7.49513,-8.432039 h -12.31347 z m 14.18723,18.336337 h -14.18723 v 18.737862 h 14.32109 q 4.95216,0 7.62899,-2.81068 2.67682,-2.810677 2.67682,-6.692094 0,-3.613732 -2.67682,-6.424407 -2.54301,-2.810681 -7.76285,-2.810681 z m 91.28004,-17.399444 v -6.692094 h 21.28088 v 62.370321 h -21.28088 v -7.093626 q -5.88903,8.298196 -17.26558,8.298196 -12.17962,0 -21.28088,-8.967404 -9.10123,-8.967407 -9.10123,-23.556174 0,-14.588762 9.10123,-23.556169 9.10126,-9.101245 21.28088,-9.101245 4.95216,0 9.6366,2.141469 4.8183,2.141469 7.62898,6.156726 z M 342.89398,64.4064 q -3.74758,3.747571 -3.74758,9.101246 0,5.353675 3.74758,9.235089 3.88145,3.747573 9.23508,3.747573 5.35369,0 9.10128,-3.747573 3.88139,-3.881414 3.88139,-9.235089 0,-5.353675 -3.88139,-9.101246 -3.74759,-3.881417 -9.10128,-3.881417 -5.35363,0 -9.23508,3.881417 z M 423.73446,9.5312314 V 48.07769 q 6.69211,-7.361302 17.26562,-7.361302 12.17962,0 21.28083,9.101245 9.10126,8.967407 9.10126,23.556169 0,14.588767 -9.10126,23.556174 -9.10121,8.967404 -21.28083,8.967404 -5.75521,0 -10.84123,-2.54299 -5.08597,-2.54299 -7.62897,-7.628993 v 8.967413 H 402.45361 V 9.5312314 Z m 22.08392,73.2115036 q 3.8814,-3.881414 3.8814,-9.235089 0,-5.353675 -3.8814,-9.101246 -3.74758,-3.881417 -9.10126,-3.881417 -5.35369,0 -9.23509,3.881417 -3.74757,3.747571 -3.74757,9.101246 0,5.353675 3.74757,9.235089 3.8814,3.747573 9.23509,3.747573 5.35368,0 9.10126,-3.747573 z m 75.35284,-40.420246 h 22.61927 l -38.54647,93.153951 h -22.3516 l 15.65949,-39.081831 -24.49305,-54.07212 h 23.28847 l 12.17962,30.248263 z M 596.25642,9.5312314 V 29.741355 h -8.0305 q -3.88139,0 -6.29054,2.676834 -2.27535,2.542998 -2.40916,7.628987 v 2.275313 H 592.6427 V 57.981988 H 579.52622 V 104.69281 H 558.24534 V 57.981988 H 546.60112 V 42.322489 h 11.64422 v -2.275313 q 0,-14.856444 7.89669,-22.619275 8.03052,-7.8966696 22.08389,-7.8966696 z m 35.33404,96.3661486 q -13.65189,0 -23.42231,-9.101247 -9.63665,-9.101249 -9.63665,-23.422331 0,-14.45492 9.63665,-23.556169 9.77042,-9.101245 23.42231,-9.101245 13.78573,0 23.55619,9.101245 9.90426,9.101249 9.90426,23.556169 0,14.321082 -9.90426,23.422331 -9.77046,9.101247 -23.55619,9.101247 z m -9.23507,-41.624823 q -3.74759,3.74757 -3.74759,9.101245 0,5.353675 3.74759,9.235092 3.8814,3.747571 9.23507,3.747571 5.3537,0 9.10123,-3.747571 3.88144,-3.881417 3.88144,-9.235092 0,-5.353675 -3.88144,-9.101245 -3.74753,-3.881412 -9.10123,-3.881412 -5.35367,0 -9.23507,3.881412 z m 84.588,41.624823 q -13.6519,0 -23.42236,-9.101247 -9.63661,-9.101249 -9.63661,-23.422331 0,-14.45492 9.63661,-23.556169 9.77046,-9.101245 23.42236,-9.101245 13.78572,0 23.55613,9.101245 9.90433,9.101249 9.90433,23.556169 0,14.321082 -9.90433,23.422331 -9.77041,9.101247 -23.55613,9.101247 z m -9.23511,-41.624823 q -3.74756,3.74757 -3.74756,9.101245 0,5.353675 3.74756,9.235092 3.88143,3.747571 9.23511,3.747571 5.35364,0 9.10123,-3.747571 3.88144,-3.881417 3.88144,-9.235092 0,-5.353675 -3.88144,-9.101245 -3.74759,-3.881412 -9.10123,-3.881412 -5.35368,0 -9.23511,3.881412 z m 81.37575,-44.301661 v 22.351593 h 13.11652 V 57.981988 H 779.08403 V 104.69281 H 758.07087 V 57.981988 H 746.6943 V 42.322489 h 11.37657 V 19.970896 Z"
       id="text1"
       aria-label="Babyfoot&#10;" /><path
       d="m 258.79288,165.77787 9.28745,5.16744 q -5.37694,8.03052 -14.38507,8.03052 -7.54169,0 -12.84881,-4.67865 -5.23729,-4.74847 -5.23729,-12.29016 0,-7.54169 5.30713,-12.29016 5.30711,-4.74847 12.77897,-4.74847 8.93829,0 14.31524,8.0305 l -9.07795,5.44678 q -1.95527,-3.21221 -5.72611,-3.21221 -2.79321,0 -4.8183,2.02509 -1.95525,1.95524 -1.95525,4.74847 0,2.79322 1.95525,4.81831 2.02509,1.95524 4.8183,1.95524 3.49153,0 5.58644,-3.0027 z m 30.37617,13.19796 q -7.1227,0 -12.22034,-4.74848 -5.02779,-4.74848 -5.02779,-12.22033 0,-7.54169 5.02779,-12.29016 5.09764,-4.74847 12.22034,-4.74847 7.19254,0 12.29015,4.74847 5.16747,4.74847 5.16747,12.29016 0,7.47185 -5.16747,12.22033 -5.09761,4.74848 -12.29015,4.74848 z m -4.8183,-21.71728 q -1.95526,1.95524 -1.95526,4.74847 0,2.79322 1.95526,4.81831 2.02507,1.95524 4.8183,1.95524 2.79322,0 4.74846,-1.95524 2.02509,-2.02509 2.02509,-4.81831 0,-2.79323 -2.02509,-4.74847 -1.95524,-2.02509 -4.74846,-2.02509 -2.79323,0 -4.8183,2.02509 z m 51.74433,-8.44949 v -20.11117 h 11.10304 v 49.64946 h -10.47457 v -4.67865 q -1.32677,2.65357 -3.98033,3.98034 -2.65357,1.32679 -5.65627,1.32679 -6.35457,0 -11.10305,-4.67865 -4.74847,-4.67864 -4.74847,-12.29016 0,-7.61152 4.74847,-12.29016 4.74848,-4.74847 11.10305,-4.74847 5.5166,0 9.00813,3.84067 z m -11.59185,8.51931 q -1.95527,1.95527 -1.95527,4.74848 0,2.79321 1.95527,4.8183 2.02507,1.95525 4.8183,1.95525 2.79321,0 4.74846,-1.95525 2.02509,-2.02509 2.02509,-4.8183 0,-2.79321 -2.02509,-4.74848 -1.95525,-2.02507 -4.74846,-2.02507 -2.79323,0 -4.8183,2.02507 z m 31.07455,-11.52202 v 32.541 h 11.10305 v -32.541 z m -1.18712,-10.82372 q 0,-2.65356 1.95526,-4.46915 2.02507,-1.81559 4.74846,-1.81559 2.79323,0 4.67865,1.81559 1.95525,1.81559 1.95525,4.46915 0,2.65356 -1.95525,4.53898 -1.88542,1.81559 -4.67865,1.81559 -2.72339,0 -4.74846,-1.88542 -1.95526,-1.88542 -1.95526,-4.46915 z m 31.77282,26.25625 v 17.10847 h -11.10305 v -32.541 h 11.10305 v 5.09763 q 0.76814,-2.79322 3.63119,-4.32949 2.93288,-1.6061 5.5166,-1.6061 6.42441,0 9.70643,4.18983 3.28204,4.11999 3.28204,11.87117 v 17.31796 H 397.1967 v -16.9688 q 0,-2.93288 -1.60611,-4.25967 -1.60609,-1.3966 -3.701,-1.3966 -2.23458,0 -3.98034,1.32678 -1.74577,1.32677 -1.74577,4.18982 z m 41.47916,-3.91051 q -1.95524,1.95527 -1.95524,4.74848 0,2.79321 1.95524,4.8183 2.02509,1.95525 4.81831,1.95525 2.79323,0 4.74847,-1.95525 2.02509,-2.02509 2.02509,-4.8183 0,-2.79321 -2.02509,-4.74848 -1.95524,-2.02507 -4.74847,-2.02507 -2.79322,0 -4.81831,2.02507 z m -12.56948,26.88474 9.35729,-3.77084 q 0.83796,1.95525 2.72339,3.14237 1.95524,1.18711 4.46914,1.18711 4.12,0 6.35458,-2.65355 2.23457,-2.65356 2.23457,-7.82102 -2.65355,4.67865 -9.98575,4.67865 -6.35458,0 -11.10304,-4.67865 -4.74848,-4.67864 -4.74848,-12.29016 0,-7.61152 4.74848,-12.29016 4.74846,-4.74847 11.10304,-4.74847 2.58372,0 5.0278,1.11728 2.51389,1.11729 3.98033,3.2122 v -3.49152 h 11.10305 v 28.421 q 0,10.12541 -4.88815,15.3627 -4.8183,5.30713 -13.82643,5.30713 -5.65627,0 -10.12541,-3.00273 -4.46915,-2.93288 -6.42441,-7.68134 z m 81.5619,-18.43524 9.28746,5.16744 q -5.37695,8.03052 -14.38508,8.03052 -7.54169,0 -12.8488,-4.67865 -5.23729,-4.74847 -5.23729,-12.29016 0,-7.54169 5.30711,-12.29016 5.30711,-4.74847 12.77898,-4.74847 8.93831,0 14.31524,8.0305 l -9.07795,5.44678 q -1.95525,-3.21221 -5.7261,-3.21221 -2.79323,0 -4.8183,2.02509 -1.95526,1.95524 -1.95526,4.74847 0,2.79322 1.95526,4.81831 2.02507,1.95524 4.8183,1.95524 3.49152,0 5.58643,-3.0027 z m 26.53553,-4.53899 v 17.10847 h -11.10304 v -49.64946 h 11.10304 v 22.20609 q 0.76814,-2.79322 3.6312,-4.32949 2.93288,-1.6061 5.5166,-1.6061 6.42441,0 9.70643,4.18983 3.28204,4.11999 3.28204,11.87117 v 17.31796 h -11.10305 v -16.9688 q 0,-2.65356 -1.67593,-4.12 -1.67593,-1.53627 -3.63118,-1.53627 -2.23458,0 -3.98033,1.3966 -1.74578,1.32679 -1.74578,4.12 z m 53.07104,-11.94101 v -3.49152 h 11.10304 v 32.541 h -11.10304 v -3.70102 q -3.07255,4.3295 -9.00813,4.3295 -6.35458,0 -11.10305,-4.67865 -4.74847,-4.67864 -4.74847,-12.29016 0,-7.61152 4.74847,-12.29016 4.74847,-4.74847 11.10305,-4.74847 2.58372,0 5.02779,1.11728 2.5139,1.11729 3.98034,3.2122 z m -11.59187,8.0305 q -1.95525,1.95527 -1.95525,4.74848 0,2.79321 1.95525,4.8183 2.02509,1.95525 4.8183,1.95525 2.79323,0 4.74848,-1.95525 2.02509,-2.02509 2.02509,-4.8183 0,-2.79321 -2.02509,-4.74848 -1.95525,-2.02507 -4.74848,-2.02507 -2.79321,0 -4.8183,2.02507 z m 31.07452,21.01898 v -49.64946 h 11.10305 v 49.64946 z m 19.48265,0 v -49.64946 h 11.10305 v 49.64946 z m 51.81417,-16.75931 q 0,0.83797 -0.20949,3.56136 h -23.32337 q 0.27932,2.23456 2.44406,3.63117 2.23458,1.32678 5.02779,1.32678 3.91051,0 6.21492,-2.72339 0.76814,0.62847 3.91051,2.86305 3.21219,2.23458 3.77084,2.65357 -4.60881,6.07525 -14.73424,6.07525 -7.19253,0 -12.29015,-4.74848 -5.02779,-4.8183 -5.02779,-12.35999 0,-7.47186 5.02779,-12.1505 5.09762,-4.74847 12.29015,-4.74847 7.19255,0 12.01086,4.60881 4.88812,4.53898 4.88812,12.01084 z m -23.53286,-2.65356 h 12.98847 q -0.69832,-2.72339 -2.65357,-3.77085 -1.95524,-1.04745 -3.84067,-1.04745 -1.11729,0 -2.3044,0.27932 -1.1173,0.27932 -2.5139,1.46644 -1.32679,1.18712 -1.67593,3.07254 z m 40.71111,2.3044 v 17.10847 H 673.0963 v -32.541 h 11.10305 v 5.09763 q 0.76814,-2.79322 3.63119,-4.32949 2.93288,-1.6061 5.51661,-1.6061 6.4244,0 9.70643,4.18983 3.28203,4.11999 3.28203,11.87117 v 17.31796 h -11.10304 v -16.9688 q 0,-2.93288 -1.60611,-4.25967 -1.60609,-1.3966 -3.701,-1.3966 -2.23458,0 -3.98034,1.32678 -1.74577,1.32677 -1.74577,4.18982 z m 41.47917,-3.91051 q -1.95525,1.95527 -1.95525,4.74848 0,2.79321 1.95525,4.8183 2.02509,1.95525 4.8183,1.95525 2.79323,0 4.74848,-1.95525 2.02508,-2.02509 2.02508,-4.8183 0,-2.79321 -2.02508,-4.74848 -1.95525,-2.02507 -4.74848,-2.02507 -2.79321,0 -4.8183,2.02507 z m -12.56949,26.88474 9.35729,-3.77084 q 0.83797,1.95525 2.72339,3.14237 1.95525,1.18711 4.46914,1.18711 4.12001,0 6.35459,-2.65355 2.23456,-2.65356 2.23456,-7.82102 -2.65355,4.67865 -9.98575,4.67865 -6.35458,0 -11.10304,-4.67865 -4.74848,-4.67864 -4.74848,-12.29016 0,-7.61152 4.74848,-12.29016 4.74846,-4.74847 11.10304,-4.74847 2.58373,0 5.0278,1.11728 2.5139,1.11729 3.98033,3.2122 v -3.49152 h 11.10305 v 28.421 q 0,10.12541 -4.88814,15.3627 -4.81831,5.30713 -13.82644,5.30713 -5.65627,0 -10.12541,-3.00273 -4.46914,-2.93288 -6.42441,-7.68134 z m 75.97561,-22.62507 q 0,0.83797 -0.20949,3.56136 h -23.32339 q 0.27933,2.23456 2.44407,3.63117 2.23458,1.32678 5.02779,1.32678 3.91052,0 6.21492,-2.72339 0.76813,0.62847 3.9105,2.86305 3.21221,2.23458 3.77084,2.65357 -4.60881,6.07525 -14.73422,6.07525 -7.19253,0 -12.29017,-4.74848 -5.02779,-4.8183 -5.02779,-12.35999 0,-7.47186 5.02779,-12.1505 5.09764,-4.74847 12.29017,-4.74847 7.19253,0 12.01083,4.60881 4.88815,4.53898 4.88815,12.01084 z m -23.53288,-2.65356 h 12.98847 q -0.6983,-2.72339 -2.65355,-3.77085 -1.95527,-1.04745 -3.84069,-1.04745 -1.11728,0 -2.3044,0.27932 -1.11729,0.27932 -2.5139,1.46644 -1.32677,1.18712 -1.67593,3.07254 z"
       id="text1-7"
       style="font-size:160px;font-family:'Sofia Pro';-inkscape-font-specification:'Sofia Pro';white-space:pre;stroke-width:0.0577337"
       aria-label="coding challenge" /></g></svg>
